# xmcd CD database file
#
# Track frame offsets:
#	150
#	49425
#	82870
#	111385
#	139980
#
# Disc length: 2244 seconds
#
# Revision: 0
# Processed by: cddbd v1.5.2PL0 Copyright (c) Steve Scherf et al.
# Submitted via: CDex 1.70beta2
#
DISCID=4308c205
DTITLE=Carlos Garnett - Journey to Enlightenment
DYEAR=1974
DGENRE=Jazz
TTITLE0=Journey to Enlightenment
TTITLE1=Love Flower
TTITLE2=Chana
TTITLE3=Caribbean Sun
TTITLE4=Let Us Go (to Higher Heights)
EXTD=YEAR: 1974
EXTT0=
EXTT1=
EXTT2=
EXTT3=
EXTT4=
PLAYORDER=
